<svg xmlns="http://www.w3.org/2000/svg" xmlns:xlink="http://www.w3.org/1999/xlink" version="1.1" width="96" height="96" viewBox="0 0 96 96">
<path d="M69.752 35.832c0 1.266-1.003 2.292-2.24 2.292s-2.24-1.026-2.24-2.292c0-1.266 1.003-2.292 2.24-2.292s2.24 1.026 2.24 2.292z" fill="#000000"/>
	<path d="M94.368 31.056c-0.188-0.516-0.584-0.936-1.092-1.156-0.508-0.216-1.084-0.212-1.592 0.012l-1.476 0.66c-2.572 1.164-4.788 2.164-6.172 2.164-0.532 0-0.932-0.124-1.408-0.748-0.144-0.18-0.22-0.364-0.164-0.7 0.18-1.108 1.664-3.78 9.572-9.212 0.788-0.54 1.084-1.56 0.712-2.436-3.776-8.84-9.204-12.34-14.696-9.728-5.56 2.64-10.132 7.7-14.532 12.68-2.648-1.28-5.936-1.568-10.352-1.568-0.516 0.108-1.052 0.216-1.424 0.596-0.384 0.38-0.588 0.892-0.58 1.424 0.024 2.316 0.060 4.876 1.284 8.856-4.584-1.448-10.020-2.724-15.776-2.724-19.84 0-36.604 11.612-36.604 25.356v7.92c0 6.86 5.248 10.924 11.264 12.068 0.008 0.248 0.060 0.5 0.168 0.74 0.456 1.008 0.908 1.876 1.324 2.68 1.256 2.428 2.088 4.040 2.088 7.608 0 0.52 0.208 0.98 0.532 1.332h2.936c2.060 0.12 8.496 0 10.556 0h2.936c0.324-0.352 0.532-0.816 0.532-1.332 0-3.684 0.808-5.22 2.036-7.536 0.432-0.824 0.904-1.708 1.38-2.76 0.056-0.116 0.056-0.248 0.084-0.368h5.14c0.028 0.12 0.028 0.252 0.084 0.368 0.496 1.084 0.976 1.984 1.424 2.812 1.196 2.228 1.988 3.688 1.988 7.484 0 0.516 0.208 0.976 0.532 1.328h2.932c1.56 0 4.5 0 6.328 0h2.932c0.328-0.352 0.532-0.812 0.532-1.328 0-3.736 0.804-5.24 2.008-7.508 0.44-0.836 0.916-1.724 1.404-2.788 0.084-0.184 0.104-0.384 0.132-0.564 6.132-1.604 16.188-13.46 17.924-22.756 7.756-0.916 12.532-3.148 14.952-6.968 2.236-3.5 2.28-8.052 0.152-13.908zM67.512 42.132c-3.432 0-6.24-2.824-6.24-6.292s2.796-6.292 6.24-6.292 6.24 2.824 6.24 6.292c0 3.464-2.8 6.292-6.24 6.292z" fill="#000000"/>
</svg>