<?xml version="1.0" encoding="UTF-8" standalone="no"?>
<svg width="96px" height="96px" viewBox="0 0 96 96" version="1.1" xmlns="http://www.w3.org/2000/svg" xmlns:xlink="http://www.w3.org/1999/xlink" xmlns:sketch="http://www.bohemiancoding.com/sketch/ns">
    <title>HippoPHP</title>
    <description>Created with Sketch (http://www.bohemiancoding.com/sketch)</description>
    <defs></defs>
    <g id="Page-1" stroke="none" stroke-width="1" fill="none" fill-rule="evenodd" sketch:type="MSPage">
        <g id="hippo" sketch:type="MSLayerGroup" transform="translate(0.000000, 8.000000)">
            <path d="M69.752,26.832 C69.752,28.098 68.749,29.124 67.512,29.124 C66.275,29.124 65.272,28.098 65.272,26.832 C65.272,25.566 66.275,24.54 67.512,24.54 C68.749,24.54 69.752,25.566 69.752,26.832 L69.752,26.832 Z" id="Shape" fill="#000000" sketch:type="MSShapeGroup"></path>
            <path d="M94.368,22.056 C94.18,21.54 93.784,21.12 93.276,20.9 C92.768,20.684 92.192,20.688 91.684,20.912 L90.208,21.572 C87.636,22.736 85.42,23.736 84.036,23.736 C83.504,23.736 83.104,23.612 82.628,22.988 C82.484,22.808 82.408,22.624 82.464,22.288 C82.644,21.18 84.128,18.508 92.036,13.076 C92.824,12.536 93.12,11.516 92.748,10.64 C88.972,1.8 83.544,-1.7 78.052,0.912 C72.492,3.552 67.92,8.612 63.52,13.592 C60.872,12.312 57.584,12.024 53.168,12.024 C52.652,12.132 52.116,12.24 51.744,12.62 C51.36,13 51.156,13.512 51.164,14.044 C51.188,16.36 51.224,18.92 52.448,22.9 C47.864,21.452 42.428,20.176 36.672,20.176 C16.832,20.176 0.068,31.788 0.068,45.532 L0.068,53.452 C0.068,60.312 5.316,64.376 11.332,65.52 C11.34,65.768 11.392,66.02 11.5,66.26 C11.956,67.268 12.408,68.136 12.824,68.94 C14.08,71.368 14.912,72.98 14.912,76.548 C14.912,77.068 15.12,77.528 15.444,77.88 L18.38,77.88 C20.44,78 26.876,77.88 28.936,77.88 L31.872,77.88 C32.196,77.528 32.404,77.064 32.404,76.548 C32.404,72.864 33.212,71.328 34.44,69.012 C34.872,68.188 35.344,67.304 35.82,66.252 C35.876,66.136 35.876,66.004 35.904,65.884 L41.044,65.884 C41.072,66.004 41.072,66.136 41.128,66.252 C41.624,67.336 42.104,68.236 42.552,69.064 C43.748,71.292 44.54,72.752 44.54,76.548 C44.54,77.064 44.748,77.524 45.072,77.876 L48.004,77.876 L54.332,77.876 L57.264,77.876 C57.592,77.524 57.796,77.064 57.796,76.548 C57.796,72.812 58.6,71.308 59.804,69.04 C60.244,68.204 60.72,67.316 61.208,66.252 C61.292,66.068 61.312,65.868 61.34,65.688 C67.472,64.084 77.528,52.228 79.264,42.932 C87.02,42.016 91.796,39.784 94.216,35.964 C96.452,32.464 96.496,27.912 94.368,22.056 L94.368,22.056 Z M67.512,33.132 C64.08,33.132 61.272,30.308 61.272,26.84 C61.272,23.372 64.068,20.548 67.512,20.548 C70.956,20.548 73.752,23.372 73.752,26.84 C73.752,30.304 70.952,33.132 67.512,33.132 L67.512,33.132 Z" id="Shape" fill="#8892BF" sketch:type="MSShapeGroup"></path>
        </g>
    </g>
</svg>